<svg width="48" height="48" viewBox="0 0 48 48" fill="none" xmlns="http://www.w3.org/2000/svg">
<g clip-path="url(#clip0_328_2)">
<path d="M27.52 41L17.752 13.424C17.832 14.032 17.928 14.816 18.04 15.776C18.152 16.736 18.256 17.824 18.352 19.04C18.464 20.256 18.552 21.544 18.616 22.904C18.696 24.264 18.736 25.64 18.736 27.032V41H13.024V7.808H21.376L31.048 35.336C30.92 34.52 30.776 33.44 30.616 32.096C30.472 30.752 30.344 29.208 30.232 27.464C30.12 25.72 30.064 23.864 30.064 21.896V7.808H35.776V41H27.52Z" fill="black"/>
</g>
<defs>
<clipPath id="clip0_328_2">
<rect width="48" height="48" fill="white"/>
</clipPath>
</defs>
</svg>
